<svg viewBox="0 0 139 95" version="1.1" xmlns="http://www.w3.org/2000/svg">
    <defs>
        <linearGradient id="linearGradient-1" x1="100%" y1="10.5120544%" x2="50%" y2="89.4879456%">
            <stop stop-color="#000000" offset="0%"></stop>
            <stop stop-color="#FFFFFF" offset="100%"></stop>
        </linearGradient>
        <linearGradient id="linearGradient-2" x1="64.0437835%" y1="46.3276743%" x2="37.373316%" y2="100%">
            <stop stop-color="#EEEEEE" stop-opacity="0" offset="0%"></stop>
            <stop stop-color="#FFFFFF" offset="100%"></stop>
        </linearGradient>
    </defs>
    <g stroke="none" stroke-width="1" fill="none" fill-rule="evenodd">
        <g transform="translate(-400.000000, -178.000000)">
            <g transform="translate(400.000000, 178.000000)">
                <path d="M0,0 L39.1816085,0 L69.3453773,32.2519224 L101.428699,0 L138.784583,0 L138.784199,29.8015838 C137.958931,37.3510206 135.784352,42.5567762 132.260463,45.4188507 C128.736573,48.2809251 112.33867,64.5239941 83.0667527,94.1480575 L56.2750821,94.1480575 L6.71554594,44.4188507 C2.46876683,39.9813776 0.345377275,35.1089553 0.345377275,29.8015838 C0.345377275,24.4942122 0.230251516,14.560351 0,0 Z" fill="#10A945"></path>
                <path d="M69.3453773,32.2519224 L101.428699,0 L138.784583,0 L138.784199,29.8015838 C137.958931,37.3510206 135.784352,42.5567762 132.260463,45.4188507 C128.736573,48.2809251 112.33867,64.5239941 83.0667527,94.1480575 L56.2750821,94.1480575 L32.8435758,70.5039241 L69.3453773,32.2519224 Z" fill="url(#linearGradient-1)" opacity="0.2"></path>
                <polygon fill="#000000" opacity="0.05" points="69.3922914 32.4202615 32.8435758 70.5039241 54.0490008 16.1851325"></polygon>
                <polygon fill="#000000" opacity="0.1" points="69.3922914 32.4202615 32.8435758 70.5039241 58.3683556 20.7402338"></polygon>
                <polygon fill="url(#linearGradient-2)" opacity="0.1" points="101.428699 0 83.0667527 94.1480575 130.378721 47.0740288"></polygon>
            </g>
        </g>
    </g>
</svg>
